<?xml version="1.0" encoding="utf-8"?>
<!-- Generator: Adobe Illustrator 21.1.0, SVG Export Plug-In . SVG Version: 6.00 Build 0)  -->
<svg version="1.1" id="Layer_1" xmlns="http://www.w3.org/2000/svg" xmlns:xlink="http://www.w3.org/1999/xlink" x="0px" y="0px"
	 viewBox="0 0 64 64" style="enable-background:new 0 0 64 64;" xml:space="preserve">
<style type="text/css">
	.st0{enable-background:new    ;}
	.st1{clip-path:url(#SVGID_2_);enable-background:new    ;}
	.st2{fill:#E7CA2D;}
	.st3{fill:#E6C92D;}
	.st4{fill:#6B7A8A;}
	.st5{clip-path:url(#SVGID_4_);enable-background:new    ;}
	.st6{fill:#6C7B8B;}
	.st7{clip-path:url(#SVGID_6_);enable-background:new    ;}
	.st8{clip-path:url(#SVGID_8_);enable-background:new    ;}
	.st9{clip-path:url(#SVGID_10_);enable-background:new    ;}
	.st10{fill:#6B7B8A;}
	.st11{clip-path:url(#SVGID_12_);enable-background:new    ;}
	.st12{clip-path:url(#SVGID_14_);enable-background:new    ;}
	.st13{clip-path:url(#SVGID_16_);enable-background:new    ;}
	.st14{clip-path:url(#SVGID_18_);enable-background:new    ;}
	.st15{clip-path:url(#SVGID_20_);enable-background:new    ;}
	.st16{clip-path:url(#SVGID_22_);enable-background:new    ;}
	.st17{clip-path:url(#SVGID_24_);enable-background:new    ;}
	.st18{clip-path:url(#SVGID_26_);enable-background:new    ;}
	.st19{clip-path:url(#SVGID_28_);enable-background:new    ;}
	.st20{clip-path:url(#SVGID_30_);enable-background:new    ;}
	.st21{clip-path:url(#SVGID_32_);enable-background:new    ;}
	.st22{fill:#6C7B8A;}
	.st23{fill:#E8CA2D;}
	.st24{clip-path:url(#SVGID_34_);enable-background:new    ;}
	.st25{clip-path:url(#SVGID_36_);enable-background:new    ;}
	.st26{clip-path:url(#SVGID_38_);enable-background:new    ;}
	.st27{clip-path:url(#SVGID_40_);enable-background:new    ;}
	.st28{clip-path:url(#SVGID_42_);enable-background:new    ;}
	.st29{clip-path:url(#SVGID_44_);enable-background:new    ;}
	.st30{clip-path:url(#SVGID_46_);enable-background:new    ;}
	.st31{clip-path:url(#SVGID_48_);enable-background:new    ;}
	.st32{clip-path:url(#SVGID_50_);enable-background:new    ;}
	.st33{clip-path:url(#SVGID_52_);enable-background:new    ;}
	.st34{fill:#778899;}
	.st35{clip-path:url(#SVGID_54_);enable-background:new    ;}
	.st36{clip-path:url(#SVGID_56_);enable-background:new    ;}
	.st37{fill:#FFDF32;}
</style>
<g>
	<g>
		<g class="st0">
			<g class="st0">
				<defs>
					<path id="SVGID_1_" class="st0" d="M35.9,28c0.1,0.1,0.2,0.1,0.3,0.2c0.1,0,0.2,0.1,0.2,0.1c0.2,0,0.4,0,0.8-0.1
						c-1,0.2-2.3,0.5-3.2,0.7C35.2,28.1,35.8,27.9,35.9,28z"/>
				</defs>
				<clipPath id="SVGID_2_">
					<use xlink:href="#SVGID_1_"  style="overflow:visible;"/>
				</clipPath>
				<g class="st1">
					<path class="st2" d="M37.2,28.2l-3.2,0.7c0.4-0.3,0.8-0.5,1.1-0.6L37.2,28.2C37.1,28.2,37.2,28.2,37.2,28.2"/>
					<path class="st3" d="M37.1,28.2l-2.1,0c0.5-0.3,0.8-0.3,0.9-0.3l0.9,0.5C36.9,28.4,37,28.3,37.1,28.2"/>
				</g>
			</g>
			<g>
				<polygon class="st4" points="24.2,58.2 24.2,57.3 25.2,58 25.2,57.1 				"/>
			</g>
			<g class="st0">
				<defs>
					<path id="SVGID_3_" class="st0" d="M35.6,40.7C35.7,40.7,35.7,40.7,35.6,40.7c-0.2-0.3-0.6-0.6-0.9-0.8
						c0.5-0.3,0.5-0.2,1.9-0.9C36.6,39,35.6,40.7,35.6,40.7z"/>
				</defs>
				<clipPath id="SVGID_4_">
					<use xlink:href="#SVGID_3_"  style="overflow:visible;"/>
				</clipPath>
				<g class="st5">
					<path class="st2" d="M35.7,40.7l-1-0.7c0.5-0.3,0.5-0.2,1.9-0.9L35.7,40.7C35.6,40.7,35.7,40.7,35.7,40.7"/>
				</g>
			</g>
			<g>
				<polygon class="st3" points="35.6,40.8 36.6,39 36.6,39.4 35.6,40.5 				"/>
			</g>
			<g>
				<polygon class="st6" points="35.6,40.5 34.6,41.4 34.6,40.7 35.6,40.8 				"/>
			</g>
			<g class="st0">
				<defs>
					<path id="SVGID_5_" class="st0" d="M37.8,28.1c-0.2,0-0.5,0.1-0.5,0.2c0,0.1,0,0.1,0.2,0.3c0.1,0.1,0.2,0.2,0.2,0.4
						c0,0-0.3,0-3.8,0C33.9,28.9,37.8,28.1,37.8,28.1z"/>
				</defs>
				<clipPath id="SVGID_6_">
					<use xlink:href="#SVGID_5_"  style="overflow:visible;"/>
				</clipPath>
				<g class="st7">
					<path class="st3" d="M37.8,28.1l0,0.9c0,0-0.3,0-3.8,0L37.8,28.1C37.8,28.1,37.8,28.1,37.8,28.1"/>
				</g>
			</g>
			<g class="st0">
				<defs>
					<path id="SVGID_7_" class="st0" d="M37.8,28.9c0-0.1-0.1-0.2-0.2-0.4c-0.1-0.1-0.2-0.2-0.2-0.3c0-0.1,0.4-0.2,0.5-0.2
						c0,0-0.1,0-0.1,0L37.8,28.9C37.8,28.9,37.8,28.9,37.8,28.9z"/>
				</defs>
				<clipPath id="SVGID_8_">
					<use xlink:href="#SVGID_7_"  style="overflow:visible;"/>
				</clipPath>
				<g class="st8">
					<path class="st3" d="M37.8,28.1v0.9c0,0,0.1,0-3.8,0l4-0.8C37.8,28.1,37.8,28.1,37.8,28.1"/>
				</g>
			</g>
			<g>
				<polygon class="st3" points="24.7,27.6 24.7,26.5 25.7,27.4 25.7,26.6 				"/>
			</g>
			<g>
				<polygon class="st4" points="36,26.5 37,26.4 37,27.1 36,26.2 				"/>
			</g>
			<g>
				<polygon class="st2" points="35.7,16.3 34.7,16.3 35.4,15.2 34.7,15.2 				"/>
			</g>
			<g>
				<polygon class="st3" points="34.7,6.1 35.7,6.1 34.7,7 35.1,7 				"/>
			</g>
			<g class="st0">
				<defs>
					<path id="SVGID_9_" class="st0" d="M24.2,57.9l0-0.6c1.7-0.3,2.8-0.8,3.4-1.5c0.5-0.6,0.8-1.6,0.8-3l0,0.6c0,1.4-0.3,2.4-0.8,3
						C27,57.1,25.9,57.5,24.2,57.9z"/>
				</defs>
				<clipPath id="SVGID_10_">
					<use xlink:href="#SVGID_9_"  style="overflow:visible;"/>
				</clipPath>
				<g class="st9">
					<path class="st10" d="M24.2,57.9v-0.6c1.7-0.3,2.8-0.8,3.4-1.5c0.5-0.6,0.8-1.6,0.8-3v0.6c0,1.4-0.3,2.4-0.8,3
						C27,57.1,25.9,57.5,24.2,57.9"/>
				</g>
			</g>
			<g class="st0">
				<defs>
					<path id="SVGID_11_" class="st0" d="M35.6,53.1l0-0.6c0,1.4,0.4,2.4,1.1,3c0.7,0.6,2,0.9,3.7,0.9c2.1,0,3.7-0.6,4.9-1.8v0.6
						c-1.2,1.2-2.8,1.8-4.9,1.8c-1.7,0-3-0.3-3.7-0.9C36,55.5,35.6,54.5,35.6,53.1z"/>
				</defs>
				<clipPath id="SVGID_12_">
					<use xlink:href="#SVGID_11_"  style="overflow:visible;"/>
				</clipPath>
				<g class="st11">
					<path class="st10" d="M35.6,53.1v-0.6c0,1.4,0.4,2.4,1.1,3c0.7,0.6,2,0.9,3.7,0.9c2.1,0,3.7-0.6,4.9-1.8v0.6
						c-1.2,1.2-2.8,1.8-4.9,1.8c-1.7,0-3-0.3-3.7-0.9C36,55.5,35.6,54.5,35.6,53.1"/>
				</g>
			</g>
			<g class="st0">
				<defs>
					<path id="SVGID_13_" class="st0" d="M45.3,55.2l0-0.6c1.2-1.2,1.8-2.9,1.8-5l0,0.6C47.1,52.3,46.5,54,45.3,55.2z"/>
				</defs>
				<clipPath id="SVGID_14_">
					<use xlink:href="#SVGID_13_"  style="overflow:visible;"/>
				</clipPath>
				<g class="st12">
					<path class="st10" d="M45.3,55.2v-0.6c1.2-1.2,1.8-2.9,1.8-5v0.6C47.1,52.3,46.5,54,45.3,55.2"/>
				</g>
			</g>
			<g class="st0">
				<defs>
					<path id="SVGID_15_" class="st0" d="M45.6,42l0-0.6c6.3,1.1,9.4,3.9,9.4,8.4l0,0.6C55,45.9,51.9,43.1,45.6,42z"/>
				</defs>
				<clipPath id="SVGID_16_">
					<use xlink:href="#SVGID_15_"  style="overflow:visible;"/>
				</clipPath>
				<g class="st13">
					<path class="st10" d="M45.6,42v-0.6c6.3,1.1,9.4,3.9,9.4,8.4v0.6C55,45.9,51.9,43.1,45.6,42"/>
				</g>
			</g>
			<g>
				<rect x="35.6" y="40.9" class="st4" width="2.7" height="0.6"/>
			</g>
			<g>
				<rect x="28.3" y="40.5" class="st4" width="7.3" height="0.6"/>
			</g>
			<g class="st0">
				<defs>
					<path id="SVGID_17_" class="st0" d="M38.3,41.5v-0.6c2.1,0,3.8-0.6,5-1.7c1.2-1.1,1.8-2.7,1.8-4.8l0,0.6c0,2-0.6,3.6-1.8,4.8
						C42.1,40.9,40.4,41.5,38.3,41.5z"/>
				</defs>
				<clipPath id="SVGID_18_">
					<use xlink:href="#SVGID_17_"  style="overflow:visible;"/>
				</clipPath>
				<g class="st14">
					<path class="st10" d="M38.3,41.5v-0.6c2.1,0,3.8-0.6,5-1.7c1.2-1.1,1.8-2.7,1.8-4.8V35c0,2-0.6,3.6-1.8,4.8
						C42.1,40.9,40.4,41.5,38.3,41.5"/>
				</g>
			</g>
			<g>
				<rect x="36" y="28.1" class="st3" width="1.8" height="0.6"/>
			</g>
			<g class="st0">
				<defs>
					<path id="SVGID_19_" class="st0" d="M37.8,28.6v-0.6c0,0,0.1,0,0.1,0l0,0.6C37.8,28.7,37.8,28.6,37.8,28.6z"/>
				</defs>
				<clipPath id="SVGID_20_">
					<use xlink:href="#SVGID_19_"  style="overflow:visible;"/>
				</clipPath>
				<g class="st15">
					<path class="st3" d="M37.8,28.6v-0.6c0,0,0.1,0,0.1,0v0.6C37.8,28.7,37.8,28.6,37.8,28.6"/>
				</g>
			</g>
			<g>
				<rect x="24.7" y="26.5" class="st3" width="11.3" height="0.6"/>
			</g>
			<g class="st0">
				<defs>
					<path id="SVGID_21_" class="st0" d="M36,26.8l0-0.6c1.9,0,3.7,0,5.6,0v0.6C39.7,26.8,37.9,26.8,36,26.8z"/>
				</defs>
				<clipPath id="SVGID_22_">
					<use xlink:href="#SVGID_21_"  style="overflow:visible;"/>
				</clipPath>
				<g class="st16">
					<path class="st10" d="M36,26.8v-0.6c1.9,0,3.7,0,5.6,0v0.6C39.7,26.8,37.9,26.8,36,26.8"/>
				</g>
			</g>
			<g class="st0">
				<defs>
					<path id="SVGID_23_" class="st0" d="M41.6,26.8v-0.6c0.2,0,0.4,0,0.7,0c1.7,0,5,0.3,7.6,2c2,1.3,3,3.1,3,5.5l0,0.6
						c0-2.4-1-4.2-3-5.5c-2.6-1.7-5.9-2-7.6-2C42,26.8,41.8,26.8,41.6,26.8z"/>
				</defs>
				<clipPath id="SVGID_24_">
					<use xlink:href="#SVGID_23_"  style="overflow:visible;"/>
				</clipPath>
				<g class="st17">
					<path class="st10" d="M41.6,26.8v-0.6c0.2,0,0.4,0,0.7,0c1.7,0,5,0.3,7.6,2c2,1.3,3,3.1,3,5.5v0.6c0-2.4-1-4.2-3-5.5
						c-2.6-1.7-5.9-2-7.6-2C42,26.8,41.8,26.8,41.6,26.8"/>
				</g>
			</g>
			<g class="st0">
				<defs>
					<path id="SVGID_25_" class="st0" d="M12.2,25.8l0-0.6c0,5.2,0.9,9.2,2.8,12c1.9,2.7,4.6,4.1,8.1,4.1c3.4,0,5.1-1.3,5.1-3.8
						l0,0.6c0,2.6-1.7,3.8-5.1,3.8c-3.5,0-6.3-1.4-8.1-4.1C13.1,35,12.2,31,12.2,25.8z"/>
				</defs>
				<clipPath id="SVGID_26_">
					<use xlink:href="#SVGID_25_"  style="overflow:visible;"/>
				</clipPath>
				<g class="st18">
					<path class="st3" d="M12.2,25.8v-0.6c0,5.2,0.9,9.2,2.8,12c1.9,2.7,4.6,4.1,8.1,4.1c3.4,0,5.1-1.3,5.1-3.8V38
						c0,2.6-1.7,3.8-5.1,3.8c-3.5,0-6.3-1.4-8.1-4.1C13.1,35,12.2,31,12.2,25.8"/>
				</g>
			</g>
			<g>
				<rect x="34.7" y="6.1" class="st3" width="1.1" height="0.6"/>
			</g>
			<g class="st0">
				<defs>
					<path id="SVGID_27_" class="st0" d="M4,25.1l0-0.6C4,19,5.8,14.4,9.3,10.7s7.9-5.5,13.3-5.5v0.6c-5.3,0-9.7,1.8-13.3,5.5
						S4,19.6,4,25.1z"/>
				</defs>
				<clipPath id="SVGID_28_">
					<use xlink:href="#SVGID_27_"  style="overflow:visible;"/>
				</clipPath>
				<g class="st19">
					<path class="st3" d="M4,25.1l0-0.6C4,19,5.8,14.4,9.3,10.7s7.9-5.5,13.3-5.5v0.6c-5.3,0-9.7,1.8-13.3,5.5S4,19.6,4,25.1"/>
				</g>
			</g>
			<g class="st0">
				<defs>
					<path id="SVGID_29_" class="st0" d="M22.5,5.8V5.2c2.1,0,4.4,0.5,6.9,1.4c1.3,0.5,2.3,0.8,2.8,0.8c0.9,0,1.7-0.4,2.4-1.2v0.6
						C33.9,7.5,33.1,8,32.2,8c-0.6,0-1.5-0.3-2.8-0.8C26.9,6.3,24.6,5.8,22.5,5.8z"/>
				</defs>
				<clipPath id="SVGID_30_">
					<use xlink:href="#SVGID_29_"  style="overflow:visible;"/>
				</clipPath>
				<g class="st20">
					<path class="st3" d="M22.5,5.8V5.2c2.1,0,4.4,0.5,6.9,1.4c1.3,0.5,2.3,0.8,2.8,0.8c0.9,0,1.7-0.4,2.4-1.2v0.6
						C33.9,7.5,33.1,8,32.2,8c-0.6,0-1.5-0.3-2.8-0.8C26.9,6.3,24.6,5.8,22.5,5.8"/>
				</g>
			</g>
			<g class="st0">
				<defs>
					<path id="SVGID_31_" class="st0" d="M35.4,16l-0.7,0.9c-1-2.8-2.6-5-4.7-6.6c-2.1-1.6-4.5-2.5-7-2.5c-3.4,0-6.1,1.6-8,4.7
						c-1.9,3.1-2.8,7.5-2.8,13.2c0,5.2,0.9,9.2,2.8,12c1.9,2.7,4.6,4.1,8.1,4.1c3.4,0,5.1-1.3,5.1-3.8l1,0.1
						c-0.5,3.9-1.5,4.6-6.1,4.8c-4.4,0.1-6.7-1.1-9-4.5c-2-3-3.1-6.9-3-12.6c-0.1-6.1,1-10.4,3-13.7C16.4,8.3,18.7,6.9,23,7
						c3.1-0.1,5.2,0.6,7.6,2.7C32.9,11.4,34.6,13.5,35.4,16z"/>
				</defs>
				<clipPath id="SVGID_32_">
					<use xlink:href="#SVGID_31_"  style="overflow:visible;"/>
				</clipPath>
				<g class="st21">
					<path class="st2" d="M35.4,16l-0.7,0.9c-1-2.8-2.6-5-4.7-6.6c-1-0.8-2.1-1.4-3.3-1.8l0.4-0.9c1.2,0.4,2.3,1.1,3.5,2.1
						C32.9,11.4,34.6,13.5,35.4,16"/>
					<path class="st3" d="M27.1,7.5l-0.4,0.9C25.6,8,24.3,7.8,23,7.8c-3.4,0-6.1,1.6-8,4.7c-1.9,3.1-2.8,7.5-2.8,13.2
						c0,5.2,0.9,9.2,2.8,12c1.9,2.7,4.6,4.1,8.1,4.1c0.7,0,1.3-0.1,1.9-0.2l0.5,1.1C24.8,42.9,24,43,23.1,43c-4.4,0.1-6.7-1.1-9-4.5
						c-2-3-3.1-6.9-3-12.6c-0.1-6.1,1-10.4,3-13.7C16.4,8.3,18.7,6.9,23,7C24.6,6.9,25.9,7.1,27.1,7.5"/>
					<path class="st2" d="M25.5,42.8L25,41.7c1-0.2,1.7-0.5,2.3-1l0.8,1C27.5,42.3,26.7,42.6,25.5,42.8"/>
					<path class="st2" d="M28,41.7l-0.8-1c0.2-0.2,0.3-0.4,0.5-0.6l0.8,0.9C28.4,41.3,28.2,41.5,28,41.7"/>
					<path class="st2" d="M28.5,41l-0.8-0.9c0.3-0.6,0.5-1.2,0.5-2.1l1,0.1C29.1,39.4,28.9,40.3,28.5,41"/>
				</g>
			</g>
			<g>
				<polygon class="st3" points="36.6,40.2 35.6,41.1 28.3,41.1 27.3,40.2 				"/>
			</g>
			<g>
				<polygon class="st22" points="29.3,42.2 28.3,41.1 35.6,41.1 34.6,42.2 				"/>
			</g>
			<g>
				<polygon class="st4" points="34.6,42.2 34.6,41.5 35.6,41.4 35.6,41.1 				"/>
			</g>
			<g>
				<path class="st3" d="M35.6,41.1h-0.3l0.5,0.2V41L35.6,41.1z M35.7,40.2v-6.6l-1,0.1v6.5H35.7z"/>
			</g>
			<g>
				<path class="st23" d="M36.4,40.2h0.2v-0.3L36.4,40.2z M35.6,41.1v0.3l0.5-0.7L35.6,41.1z"/>
			</g>
			<g class="st0">
				<defs>
					<path id="SVGID_33_" class="st0" d="M35.6,41.3C35.7,41.3,35.7,41.3,35.6,41.3c0.1-0.1,0.1,0,0.1,0
						C35.7,41.3,35.7,41.4,35.6,41.3C35.6,41.4,35.6,41.3,35.6,41.3z"/>
				</defs>
				<clipPath id="SVGID_34_">
					<use xlink:href="#SVGID_33_"  style="overflow:visible;"/>
				</clipPath>
				<g class="st24">
					<path class="st3" d="M35.7,41.3L35.7,41.3c0,0.1,0,0.1-0.1,0.1L35.7,41.3C35.6,41.3,35.7,41.3,35.7,41.3"/>
				</g>
			</g>
			<g>
				<polygon class="st10" points="44.1,58 44.1,58.8 24.2,58.8 25.2,58 				"/>
			</g>
			<g class="st0">
				<defs>
					<path id="SVGID_35_" class="st0" d="M25.2,58.8l-1-1c1.7-0.3,2.8-0.8,3.4-1.5c0.5-0.6,0.8-1.6,0.8-3l1,0.1
						c0.1,1.8-0.3,2.8-1,3.7C27.6,58.1,26.5,58.7,25.2,58.8z"/>
				</defs>
				<clipPath id="SVGID_36_">
					<use xlink:href="#SVGID_35_"  style="overflow:visible;"/>
				</clipPath>
				<g class="st25">
					<path class="st10" d="M25.2,58.8l-1-1c0.1,0,0.2,0,0.3-0.1l0.9,1C25.3,58.8,25.3,58.8,25.2,58.8"/>
					<path class="st22" d="M25.4,58.8l-0.9-1c1.5-0.3,2.6-0.8,3.1-1.4c0.2-0.2,0.3-0.4,0.4-0.7l0.9,0.6c-0.2,0.3-0.3,0.6-0.6,0.8
						C27.6,58,26.6,58.7,25.4,58.8"/>
					<path class="st6" d="M28.9,56.4l-0.9-0.6c0.2-0.5,0.4-1.2,0.4-2.1l1,0.2C29.4,55,29.2,55.8,28.9,56.4"/>
					<path class="st22" d="M29.3,54l-1-0.2c0-0.1,0-0.2,0-0.3l1,0.1C29.3,53.7,29.3,53.8,29.3,54"/>
				</g>
			</g>
			<g>
				<polygon class="st6" points="25.2,58 24.2,58.8 24.2,57.9 25.2,58.8 				"/>
			</g>
			<g class="st0">
				<defs>
					<path id="SVGID_37_" class="st0" d="M34.6,53.2l1-0.1c0,1.4,0.4,2.4,1.1,3c0.7,0.6,2,0.9,3.7,0.9c2.1,0,3.7-0.6,4.9-1.8L46,56
						c-1.4,1.4-2.9,2.2-5.6,2.1c-2.2,0.1-3.4-0.3-4.3-1.1C35.1,56.2,34.5,55.3,34.6,53.2z"/>
				</defs>
				<clipPath id="SVGID_38_">
					<use xlink:href="#SVGID_37_"  style="overflow:visible;"/>
				</clipPath>
				<g class="st26">
					<path class="st10" d="M34.6,53.2l1-0.1c0,1.4,0.4,2.4,1.1,3c0.7,0.6,2,0.9,3.7,0.9c0.4,0,0.8,0,1.2-0.1l0.3,1.2
						c-0.4,0-0.9,0.1-1.5,0c-2.2,0.1-3.4-0.3-4.3-1.1C35.1,56.2,34.5,55.3,34.6,53.2"/>
					<path class="st22" d="M41.9,58.1l-0.3-1.2c1.5-0.2,2.8-0.8,3.7-1.7L46,56C44.9,57.2,43.7,57.9,41.9,58.1"/>
				</g>
			</g>
			<g>
				<polygon class="st6" points="29.3,53.5 28.3,53.4 28.3,43.5 29.3,43.7 				"/>
			</g>
			<g class="st0">
				<defs>
					<path id="SVGID_39_" class="st0" d="M44.6,43l1-1c6.3,1.1,9.4,3.9,9.4,8.4c0,2.5-1,4.5-3,6.1c-2,1.5-4.6,2.3-7.9,2.3V58
						c2.8-0.1,5.5-0.7,7.3-2.1c1.3-1.1,2.5-3.5,2.6-5.3C54,46.6,50.7,44,44.6,43z"/>
				</defs>
				<clipPath id="SVGID_40_">
					<use xlink:href="#SVGID_39_"  style="overflow:visible;"/>
				</clipPath>
				<g class="st27">
					<path class="st10" d="M44.6,43l1-1c6.3,1.1,9.4,3.9,9.4,8.4c0,2.5-1,4.5-3,6.1c-2,1.5-4.6,2.3-7.9,2.3V58
						c2.8-0.1,5.5-0.7,7.3-2.1c1.3-1.1,2.5-3.5,2.6-5.3C54,46.6,50.7,44,44.6,43"/>
				</g>
			</g>
			<g>
				<polygon class="st4" points="34.6,42.4 35.6,43.3 35.6,53.1 34.6,53.2 				"/>
			</g>
			<g>
				<polygon class="st4" points="34.6,41.5 35.6,41.4 35.6,41.5 34.6,42.6 				"/>
			</g>
			<g class="st0">
				<defs>
					<path id="SVGID_41_" class="st0" d="M46,56l-0.7-0.8c1.2-1.2,1.8-2.9,1.8-5c0-2.1-0.7-3.8-2-5c-1.3-1.3-3.2-1.9-5.6-1.9v-0.9
						c2.9-0.1,4.7,0.7,6.3,2.2c1.5,1.5,2.4,3,2.3,5.8C48.2,53.1,47.4,54.6,46,56z"/>
				</defs>
				<clipPath id="SVGID_42_">
					<use xlink:href="#SVGID_41_"  style="overflow:visible;"/>
				</clipPath>
				<g class="st28">
					<path class="st22" d="M46,56l-0.7-0.8c0.4-0.4,0.7-0.8,1-1.3l0.9,0.7C46.9,55.1,46.5,55.6,46,56"/>
					<path class="st6" d="M47.2,54.5l-0.9-0.7c0.5-0.9,0.7-1.9,0.8-3.2l1,0.3C48.1,52.5,47.8,53.6,47.2,54.5"/>
					<path class="st22" d="M48.1,50.9l-1-0.3c0-0.2,0-0.3,0-0.5c0-0.3,0-0.5,0-0.8l1-0.1c0,0.3,0,0.6,0,1
						C48.1,50.6,48.1,50.8,48.1,50.9"/>
					<path class="st6" d="M48.1,49.4l-1,0.1c0-0.5-0.1-0.9-0.2-1.3l1-0.3C48,48.3,48,48.8,48.1,49.4"/>
					<path class="st22" d="M47.8,47.8l-1,0.3c-0.3-1.2-0.9-2.2-1.7-3c-0.5-0.5-1.1-0.9-1.8-1.2l0.5-0.8c0.7,0.4,1.4,0.8,2,1.4
						C46.8,45.5,47.5,46.5,47.8,47.8"/>
					<path class="st10" d="M43.8,43.2L43.3,44c-1.1-0.5-2.3-0.7-3.8-0.7v-0.9C41.3,42.3,42.7,42.6,43.8,43.2"/>
				</g>
			</g>
			<g class="st0">
				<defs>
					<path id="SVGID_43_" class="st0" d="M38.3,42.6v-1.1c2.1,0,3.8-0.6,5-1.7c1.2-1.1,1.8-2.7,1.8-4.8c0-4.2-2.4-6.3-7.2-6.4
						c0,0-0.1,0-0.1,0v-0.9c0.1,0,0.1,0,0.1,0c6,0.3,7.7,1.9,8.1,7.4c0.1,2.7-0.7,4.1-2.1,5.5C42.5,42,41,42.8,38.3,42.6z"/>
				</defs>
				<clipPath id="SVGID_44_">
					<use xlink:href="#SVGID_43_"  style="overflow:visible;"/>
				</clipPath>
				<g class="st29">
					<path class="st10" d="M38.3,42.6v-1.1c0.4,0,0.8,0,1.2-0.1l0.3,1.2C39.3,42.6,38.8,42.7,38.3,42.6"/>
					<path class="st22" d="M39.8,42.6l-0.3-1.2c1.5-0.2,2.8-0.7,3.7-1.6c0.4-0.4,0.7-0.8,1-1.3l0.9,0.7c-0.3,0.5-0.7,1-1.2,1.5
						C42.8,41.7,41.6,42.4,39.8,42.6"/>
					<path class="st6" d="M45.2,39.2l-0.9-0.7c0.5-0.8,0.7-1.8,0.8-3l1,0.3C46,37.2,45.7,38.3,45.2,39.2"/>
					<path class="st22" d="M46.1,35.7l-1-0.3c0-0.1,0-0.3,0-0.5c0-2.8-1.1-4.7-3.2-5.7l0.7-0.8c2.3,1,3.2,2.9,3.5,6.5
						C46.1,35.4,46.1,35.6,46.1,35.7"/>
					<path class="st10" d="M42.6,28.6l-0.7,0.8c-1.1-0.5-2.4-0.7-4-0.7c0,0-0.1,0-0.1,0v-0.9c0.1,0,0.1,0,0.1,0
						C39.9,27.9,41.4,28.1,42.6,28.6"/>
				</g>
			</g>
			<g>
				<polygon class="st10" points="39.5,42.4 39.5,43.3 35.6,43.3 34.6,42.4 				"/>
			</g>
			<g>
				<polygon class="st22" points="34.6,42.6 35.6,41.5 38.3,41.5 38.3,42.6 				"/>
			</g>
			<g>
				<polygon class="st6" points="29.3,43.7 28.3,43.5 28.3,41.1 29.3,42.2 				"/>
			</g>
			<g>
				<polygon class="st4" points="44.6,41.2 45.6,41.9 45.6,42 44.6,43 				"/>
			</g>
			<g>
				<polygon class="st3" points="27.3,40.2 28.3,41.1 28.3,43.5 27.3,42.8 				"/>
			</g>
			<g>
				<polygon class="st23" points="29.2,38.2 28.2,38 28.2,32.6 29.2,32.8 				"/>
			</g>
			<g class="st0">
				<defs>
					<path id="SVGID_45_" class="st0" d="M35.9,28.9c0.1,0,0.2,0.1,0.3,0.1c0.1,0,0.3,0,0.3,0c0.3,0,0.3,0,1.4-0.3
						c-0.6,0.3-1.1,0.8-1.4,1.3c-0.5,0.8-0.7,2-0.7,3.7l-1,0.1c-0.1-2,0.3-3.2,0.9-4.2C35.8,29.2,36,28.9,35.9,28.9z"/>
				</defs>
				<clipPath id="SVGID_46_">
					<use xlink:href="#SVGID_45_"  style="overflow:visible;"/>
				</clipPath>
				<g class="st30">
					<path class="st3" d="M33.9,29.8l4-1.1c-0.6,0.3-1.1,0.8-1.4,1.3c-0.5,0.8-0.7,2-0.7,3.7l-1,0.1c-0.1-2,0.3-3.2,0.9-4.2
						C36,28.9,36.4,28.3,33.9,29.8"/>
				</g>
			</g>
			<g>
				<polygon class="st2" points="35,29.8 36,28.6 37.8,28.6 37.8,29.8 				"/>
			</g>
			<g>
				<polygon class="st3" points="35,28.3 36,27.1 36,28.6 35,29.8 				"/>
			</g>
			<g>
				<polygon class="st2" points="25.7,28.3 24.7,27.1 36,27.1 35,28.3 				"/>
			</g>
			<g>
				<polygon class="st10" points="37.8,27.8 37.8,28.6 36,28.6 37,27.8 				"/>
			</g>
			<g class="st0">
				<defs>
					<path id="SVGID_47_" class="st0" d="M37,28l-1-1.1c1.9,0,3.7,0,5.6,0V28C39.7,28,37.9,28,37,28z"/>
				</defs>
				<clipPath id="SVGID_48_">
					<use xlink:href="#SVGID_47_"  style="overflow:visible;"/>
				</clipPath>
				<g class="st31">
					<path class="st10" d="M37,28l-1-1.1c1.9,0,3.7,0,5.6,0V28C39.7,28,37.9,28,37,28"/>
				</g>
			</g>
			<g class="st0">
				<defs>
					<path id="SVGID_49_" class="st0" d="M41.6,28v-1.1c0.2,0,0.4,0,0.7,0c1.7,0,5,0.3,7.6,2c2,1.3,3,3.1,3,5.5
						c0,3.7-2.4,6.2-7.3,7.5l-1-0.6c4.7-1.2,7.3-3.6,7.3-6.8c-0.1-1.5-1.3-3.8-2.6-4.7C47,28.2,43.9,28,42.4,28
						C42.1,28,41.8,28,41.6,28z"/>
				</defs>
				<clipPath id="SVGID_50_">
					<use xlink:href="#SVGID_49_"  style="overflow:visible;"/>
				</clipPath>
				<g class="st32">
					<path class="st10" d="M41.6,28v-1.1c0.2,0,0.4,0,0.7,0c1.7,0,5,0.3,7.6,2c2,1.3,3,3.1,3,5.5c0,3.7-2.4,6.2-7.3,7.5l-1-0.6
						c4.7-1.2,7.3-3.6,7.3-6.8c-0.1-1.5-1.3-3.8-2.6-4.7C47,28.2,43.9,28,42.4,28C42.1,28,41.8,28,41.6,28"/>
				</g>
			</g>
			<g class="st0">
				<defs>
					<path id="SVGID_51_" class="st0" d="M29.2,32.8l-1-0.1c0-2.5-1.2-4-3.5-4.4l1-0.7C28.4,28.2,29.1,29.2,29.2,32.8z"/>
				</defs>
				<clipPath id="SVGID_52_">
					<use xlink:href="#SVGID_51_"  style="overflow:visible;"/>
				</clipPath>
				<g class="st33">
					<path class="st2" d="M29.2,32.8l-1-0.1c0-0.6-0.1-1.2-0.2-1.7l1-0.4C29.1,31.1,29.2,31.9,29.2,32.8"/>
					<path class="st2" d="M29,30.5l-1,0.4c-0.2-0.5-0.4-1-0.7-1.3l1.1-0.6C28.7,29.4,28.9,29.9,29,30.5"/>
					<path class="st2" d="M28.4,29l-1.1,0.6c-0.4-0.5-0.9-0.8-1.5-1.1l1.1-0.6C27.5,28.2,28,28.5,28.4,29"/>
					<path class="st3" d="M26.9,27.9l-1.1,0.6c-0.3-0.1-0.7-0.2-1-0.3l1-0.7C26.2,27.6,26.5,27.8,26.9,27.9"/>
				</g>
			</g>
			<g>
				<polygon class="st23" points="25.7,27.5 24.7,28.2 24.7,27.1 25.7,28.3 				"/>
			</g>
			<g>
				<polygon class="st6" points="37,27.3 37,28 36,26.8 36,27.1 				"/>
			</g>
			<g>
				<polygon class="st6" points="37,27.8 36,28.6 36,27.1 37,27.3 				"/>
			</g>
			<g>
				<path class="st34" d="M44.6,43c6.1,1,9.4,3.7,9.4,7.6c-0.1,1.7-1.3,4.2-2.6,5.3c-1.8,1.4-4.5,2-7.3,2.1H25.2v0.9
					c1.3-0.1,2.4-0.8,3.1-1.6c0.7-0.9,1.2-1.8,1-3.7v-9.9v-1.4h5.3v-0.7v1.1h3.7c2.7,0.1,4.3-0.6,5.6-2c1.4-1.3,2.2-2.8,2.1-5.5
					c-0.4-5.5-2.2-7-8.1-7.4c0,0-0.1,0-0.1,0H37v-0.5V28c0.9,0,2.7,0,4.6,0c0.2,0,0.5,0,0.7,0c1.6,0,4.7,0.2,7.1,1.8
					c1.3,0.9,2.5,3.2,2.6,4.7c0,3.2-2.7,5.5-7.3,6.8V43z M46,56c1.4-1.4,2.2-3,2.1-5.7c0.1-2.7-0.8-4.3-2.3-5.8
					c-1.5-1.5-3.3-2.3-6.3-2.2h-4.9v10.8c-0.1,2.1,0.5,3,1.5,3.8c1,0.8,2.2,1.3,4.3,1.1C43.1,58.3,44.6,57.5,46,56"/>
			</g>
			<g>
				<polygon class="st3" points="34.7,7.9 35.7,6.7 35.7,16.9 34.7,16 				"/>
			</g>
			<g>
				<polygon class="st3" points="34.7,16 35.7,16.9 34.7,16.9 35.4,16 				"/>
			</g>
			<g class="st0">
				<defs>
					<path id="SVGID_53_" class="st0" d="M22.5,6.9V5.8c2.1,0,4.4,0.5,6.9,1.4C30.7,7.7,31.7,8,32.2,8c0.9,0,1.7-0.4,2.4-1.2
						l0.4,1.1c-0.8,1-1.7,1.2-2.9,1.2c-0.8,0-1.8-0.2-3.2-0.8C26.8,7.5,24.5,6.9,22.5,6.9z"/>
				</defs>
				<clipPath id="SVGID_54_">
					<use xlink:href="#SVGID_53_"  style="overflow:visible;"/>
				</clipPath>
				<g class="st35">
					<path class="st3" d="M22.5,6.9V5.8c2.1,0,4.4,0.5,6.9,1.4C30.7,7.7,31.7,8,32.2,8c0.2,0,0.4,0,0.5-0.1L33,9.1
						c-0.2,0-0.5,0-0.7,0c-0.8,0-1.8-0.2-3.2-0.8C26.8,7.5,24.5,6.9,22.5,6.9"/>
					<path class="st2" d="M33,9.1l-0.2-1.2c0.7-0.1,1.3-0.5,1.9-1.2l0.4,1.1C34.5,8.7,33.8,9,33,9.1"/>
				</g>
			</g>
			<g>
				<polygon class="st2" points="35.1,7.9 34.7,6.7 35.7,6.7 34.7,7.9 				"/>
			</g>
			<g class="st0">
				<defs>
					<path id="SVGID_55_" class="st0" d="M27.3,42.8l1,0.7c-1.8,0.3-3.7,0.4-5.8,0.4c-3.6,0-6.8-0.8-9.6-2.4c-2.8-1.6-5-3.9-6.6-6.8
						S4,28.6,4,25.1C4,19.6,5.8,15,9.3,11.3s7.9-5.5,13.3-5.5v1.1C17.8,7,13.1,9,10,12.1c-3.3,3.5-4.9,8.2-5,13.1
						c0.1,3.1,0.8,6.4,2.3,9.1c1.5,2.5,3.8,4.9,6.2,6.4c2.6,1.5,5.9,2.2,9.1,2.3C24.5,43,26.4,42.9,27.3,42.8z"/>
				</defs>
				<clipPath id="SVGID_56_">
					<use xlink:href="#SVGID_55_"  style="overflow:visible;"/>
				</clipPath>
				<g class="st36">
					<path class="st3" d="M27.3,42.8l1,0.7c-1.8,0.3-3.7,0.4-5.8,0.4c-3.6,0-6.8-0.8-9.6-2.4l0.5-0.7c2.6,1.5,5.9,2.1,9.1,2.3
						C24.5,43,26.4,42.9,27.3,42.8"/>
					<path class="st2" d="M13.4,40.8l-0.5,0.7c0,0,0,0,0,0c-2.8-1.6-5-3.9-6.6-6.8c-1-1.9-1.7-3.9-2.1-6.1l1-0.1c0.3,2,1,4,1.9,5.9
						C8.7,36.9,11.1,39.3,13.4,40.8C13.4,40.8,13.4,40.8,13.4,40.8"/>
					<path class="st2" d="M5.3,28.5l-1,0.1c-0.1-0.6-0.2-1.2-0.2-1.9l1,0C5.1,27.4,5.2,28,5.3,28.5"/>
					<path class="st2" d="M5.1,26.8l-1,0C4,26.2,4,25.7,4,25.1c0-0.4,0-0.7,0-1.1l1,0.2c0,0.3,0,0.6,0,0.9C5,25.8,5,26.3,5.1,26.8"
						/>
					<path class="st2" d="M5,24.3l-1-0.2c0.1-3.3,0.9-6.3,2.4-8.9l0.9,0.7C5.9,18.4,5.2,21.3,5,24.3"/>
					<path class="st2" d="M7.3,15.9l-0.9-0.7c0.8-1.4,1.7-2.7,2.9-3.9c3-3.2,6.7-5,11.1-5.4l0.2,1.2c-4,0.5-7.9,2.4-10.6,5.1
						C8.9,13.3,8,14.5,7.3,15.9"/>
					<path class="st3" d="M20.6,7.1l-0.2-1.2c0.7-0.1,1.4-0.1,2.1-0.1v1.1C21.9,6.9,21.2,7,20.6,7.1"/>
				</g>
			</g>
			<g>
				<path class="st37" d="M22.5,6.9c2,0,4.2,0.6,6.5,1.4c1.5,0.7,2.4,0.8,3.2,0.8c1.2,0,2.1-0.2,2.9-1.2h-0.4V16h0.6
					c-0.8-2.5-2.5-4.6-4.8-6.4c-2.5-2-4.5-2.8-7.6-2.7c-4.3,0-6.6,1.3-8.9,5.2c-2,3.3-3.1,7.7-3,13.7c-0.1,5.6,1,9.6,3,12.6
					c2.3,3.5,4.6,4.6,9,4.5c4.6-0.2,5.6-1,6.1-4.8v-5.4c-0.2-3.6-0.9-4.5-3.5-5.3v0.8H35v1.5h2.8c0,0,0.1,0-3.8,0
					c2.5-1.4,2.1-0.9,1.7-0.2c-0.6,1-1,2.2-0.9,4.2v7.1c0.5-0.3,0.5-0.2,1.9-0.9v0.3l-9.3,0v2.6c-0.9,0.1-2.8,0.2-4.8,0.3
					c-3.2-0.1-6.5-0.8-9.1-2.3c-2.4-1.5-4.7-3.9-6.2-6.4c-1.5-2.8-2.2-6-2.3-9.1c0.1-4.9,1.7-9.7,5-13.1C13.1,9,17.8,7,22.5,6.9z"/>
			</g>
		</g>
	</g>
</g>
</svg>
